<svg xmlns="http://www.w3.org/2000/svg">
<!-- Group Header -->

<!-- Frame -->
<symbol id="frame-icon" viewBox="0 0 24 24" fill="none" xmlns="http://www.w3.org/2000/svg">
<path d="M12 11C14.2091 11 16 9.20914 16 7C16 4.79086 14.2091 3 12 3C9.79086 3 8 4.79086 8 7C8 9.20914 9.79086 11 12 11Z" stroke="currentColor" stroke-width="1.5" stroke-linecap="round" stroke-linejoin="round"/>
<path d="M6 21V19C6 17.9391 6.42143 16.9217 7.17157 16.1716C7.92172 15.4214 8.93913 15 10 15H14C15.0609 15 16.0783 15.4214 16.8284 16.1716C17.5786 16.9217 18 17.9391 18 19V21" stroke="currentColor" stroke-width="1.5" stroke-linecap="round" stroke-linejoin="round"/>
</symbol>

<!-- Phone -->
<symbol id="phone-icon" viewBox="0 0 24 24" fill="none" xmlns="http://www.w3.org/2000/svg">
<path d="M5 4H9L11 9L8.5 10.5C9.57096 12.6715 11.3285 14.429 13.5 15.5L15 13L20 15V19C20 19.5304 19.7893 20.0391 19.4142 20.4142C19.0391 20.7893 18.5304 21 18 21C14.0993 20.763 10.4202 19.1065 7.65683 16.3432C4.8935 13.5798 3.23705 9.90074 3 6C3 5.46957 3.21071 4.96086 3.58579 4.58579C3.96086 4.21071 4.46957 4 5 4" stroke="currentColor" stroke-width="1.5" stroke-linecap="round" stroke-linejoin="round"/>
<path d="M15 7C15.5304 7 16.0391 7.21071 16.4142 7.58579C16.7893 7.96086 17 8.46957 17 9" stroke="currentColor" stroke-width="1.5" stroke-linecap="round" stroke-linejoin="round"/>
<path d="M15 3C16.5913 3 18.1174 3.63214 19.2426 4.75736C20.3679 5.88258 21 7.4087 21 9" stroke="currentColor" stroke-width="1.5" stroke-linecap="round" stroke-linejoin="round"/>
</symbol>

<!--  Group navigation list-app -->

<!--Real-time-->
<symbol id="real-time-icon" viewBox="0 0 32 32" fill="currentColor" xmlns="http://www.w3.org/2000/svg">
<path d="M29.3536 6.14642L24.3536 1.14642C24.2598 1.05267 24.1326 1 24 1H11.5C10.9698 1.00061 10.4614 1.21152 10.0865 1.58646C9.71151 1.9614 9.50061 2.46975 9.5 3V17.5H10.5V3C10.5003 2.73488 10.6058 2.4807 10.7932 2.29323C10.9807 2.10576 11.2349 2.0003 11.5 2H23.5V5C23.5006 5.53025 23.7115 6.0386 24.0865 6.41354C24.4614 6.78849 24.9698 6.99939 25.5 7H28.5V29C28.4997 29.2651 28.3942 29.5193 28.2068 29.7068C28.0193 29.8942 27.7651 29.9997 27.5 30H11.5C11.2541 30.0002 11.0167 29.9096 10.8335 29.7455L10.1665 30.4906C10.533 30.8189 11.0079 31.0003 11.5 31H27.5C28.0302 30.9994 28.5386 30.7885 28.9135 30.4135C29.2885 30.0386 29.4994 29.5302 29.5 29V6.5C29.5 6.36739 29.4473 6.24021 29.3536 6.14642ZM24.5 5V2.70709L27.7929 6H25.5C25.2349 5.9997 24.9807 5.89424 24.7932 5.70677C24.6058 5.5193 24.5003 5.26512 24.5 5Z" fill="currentColor"/>
<path d="M11.5 3H13.5V4H11.5V3Z" fill="currentColor"/>
<path d="M14.5 3H18V4H14.5V3Z" fill="currentColor"/>
<path d="M11.5 5H14.5V6H11.5V5Z" fill="currentColor"/>
<path d="M11.5 8H15V9H11.5V8Z" fill="currentColor"/>
<path d="M16 8H20V9H16V8Z" fill="currentColor"/>
<path d="M11.5 10H16V11H11.5V10Z" fill="currentColor"/>
<path d="M14 12H19V13H14V12Z" fill="currentColor"/>
<path d="M20 12H24.5V13H20V12Z" fill="currentColor"/>
<path d="M25.5 12H27.5V13H25.5V12Z" fill="currentColor"/>
<path d="M11.5 14H16.5V15H11.5V14Z" fill="currentColor"/>
<path d="M17.5 14H22V15H17.5V14Z" fill="currentColor"/>
<path d="M23 14H27.5V15H23V14Z" fill="currentColor"/>
<path d="M11.5 16H19V17H11.5V16Z" fill="currentColor"/>
<path d="M20 16H24.5V17H20V16Z" fill="currentColor"/>
<path d="M25.5 16H27.5V17H25.5V16Z" fill="currentColor"/>
<path d="M14.5 25.5C14.3674 25.5 14.2402 25.5527 14.1465 25.6465C14.0527 25.7402 14 25.8674 14 26V29C14 29.1326 14.0527 29.2598 14.1465 29.3535C14.2402 29.4473 14.3674 29.5 14.5 29.5H17.5C17.6326 29.5 17.7598 29.4473 17.8535 29.3535C17.9473 29.2598 18 29.1326 18 29V26C18 25.8674 17.9473 25.7402 17.8535 25.6465C17.7598 25.5527 17.6326 25.5 17.5 25.5H14.5ZM17 28.5H15V26.5H17V28.5Z" fill="currentColor"/>
<path d="M19 29C19 29.1326 19.0527 29.2598 19.1465 29.3535C19.2402 29.4473 19.3674 29.5 19.5 29.5H22.5C22.6326 29.5 22.7598 29.4473 22.8535 29.3535C22.9473 29.2598 23 29.1326 23 29V23.5C23 23.3674 22.9473 23.2402 22.8535 23.1465C22.7598 23.0527 22.6326 23 22.5 23H19.5C19.3674 23 19.2402 23.0527 19.1465 23.1465C19.0527 23.2402 19 23.3674 19 23.5V29ZM20 24H22V28.5H20V24Z" fill="currentColor"/>
<path d="M24.5 29.5H27.5C27.6326 29.5 27.7598 29.4473 27.8535 29.3535C27.9473 29.2598 28 29.1326 28 29V21.5C28 21.3674 27.9473 21.2402 27.8535 21.1465C27.7598 21.0527 27.6326 21 27.5 21H24.5C24.3674 21 24.2402 21.0527 24.1465 21.1465C24.0527 21.2402 24 21.3674 24 21.5V29C24 29.1326 24.0527 29.2598 24.1465 29.3535C24.2402 29.4473 24.3674 29.5 24.5 29.5ZM25 22H27V28.5H25V22Z" fill="currentColor"/>
<path d="M3.50003 23.9999C3.50142 22.8437 3.9473 21.7323 4.74538 20.8956C5.54346 20.059 6.63265 19.5612 7.78753 19.5053L7.14646 20.1464L7.85362 20.8535L9.35362 19.3535C9.44738 19.2597 9.50006 19.1326 9.50006 18.9999C9.50006 18.8673 9.44738 18.7401 9.35362 18.6464L7.85362 17.1464L7.14646 17.8535L7.79705 18.5041C6.60451 18.5482 5.45866 18.979 4.53239 19.7314C3.60612 20.4838 2.94968 21.5171 2.66212 22.6753C2.37455 23.8335 2.47146 25.0538 2.93821 26.1521C3.40497 27.2504 4.21626 28.1671 5.24967 28.7639L5.7504 27.8983C5.06727 27.5019 4.49999 26.9333 4.10513 26.2493C3.71028 25.5653 3.50164 24.7897 3.50003 23.9999Z" fill="currentColor"/>
<path d="M13.5 24C13.4981 23.0349 13.2432 22.0871 12.7607 21.2512C12.2783 20.4153 11.5851 19.7205 10.7504 19.2361L10.2496 20.1017C11.0918 20.5879 11.7539 21.3338 12.1367 22.2278C12.5195 23.1218 12.6024 24.1157 12.373 25.0608C12.1436 26.0058 11.6143 26.8511 10.8643 27.4701C10.1142 28.0892 9.18389 28.4486 8.21249 28.4946L8.85356 27.8536L8.14641 27.1464L6.64641 28.6464C6.55264 28.7402 6.49997 28.8674 6.49997 29C6.49997 29.1326 6.55264 29.2598 6.64641 29.3536L8.14641 30.8536L8.85356 30.1464L8.20297 29.4958C9.62495 29.4417 10.9708 28.8393 11.9583 27.8147C12.9458 26.7901 13.4983 25.423 13.5 24Z" fill="currentColor"/>
<path d="M8.35358 24.3536C8.44733 24.2598 8.5 24.1326 8.5 24V21.5H7.5V23.7929L6.14642 25.1464L6.85358 25.8536L8.35358 24.3536Z" fill="currentColor"/>
</symbol>

<!-- Audits -->
<symbol id="audits-icon" viewBox="0 0 32 32" fill="none" xmlns="http://www.w3.org/2000/svg">
<path d="M31.0602 26.0996C30.715 26.0996 30.4352 26.3794 30.4352 26.7246V30.4726C30.4352 30.6256 30.3107 30.75 30.1578 30.75H9.52982C9.37682 30.75 9.25238 30.6256 9.25238 30.4726V22.8892L9.67663 22.4651C9.92069 22.221 9.92069 21.8253 9.67663 21.5811L9.52357 21.4281L10.9471 20.0046C13.3569 21.1544 16.3459 20.6459 18.2289 18.7501C19.4382 17.5408 20.1041 15.9329 20.1041 14.2227C20.1041 10.7321 17.1916 7.81962 13.701 7.81962C12.0487 7.81962 10.4411 8.46912 9.25238 9.61769V4.23419C9.25238 4.08119 9.37688 3.95675 9.52982 3.95675H11.8644V4.70444C11.8644 5.71888 12.7128 6.56787 13.7271 6.56787H25.9604C26.9744 6.56787 27.8237 5.71844 27.8237 4.70444V3.95675H30.1577C30.3107 3.95675 30.4351 4.08119 30.4351 4.23419V21.2304C30.4351 21.5755 30.7149 21.8554 31.0601 21.8554C31.4053 21.8554 31.6851 21.5755 31.6851 21.2304V4.23419C31.6851 3.39194 30.9999 2.70675 30.1577 2.70675L24.6071 2.70581V2.27588C24.6071 1.02094 23.5861 0 22.3313 0H17.3568C16.1019 0 15.0809 1.02094 15.0809 2.27588V2.70581L9.52982 2.70675C8.68757 2.70675 8.00238 3.392 8.00238 4.23419V11.3029C7.08719 13.0922 7.06819 15.2253 7.94563 17.0288L6.53463 18.4398L6.39507 18.3003C6.15101 18.0562 5.75532 18.0563 5.51119 18.3003L1.16582 22.6457C0.0312561 23.7804 0.0311311 25.6758 1.16582 26.8106C2.30051 27.9453 4.19613 27.9453 5.33088 26.8105L8.00238 24.1387V30.4724C8.00238 31.3147 8.68757 31.9999 9.52982 31.9999H30.1577C30.9999 31.9999 31.6851 31.3146 31.6851 30.4724V26.7244C31.6852 26.3794 31.4054 26.0996 31.0602 26.0996ZM15.7059 3.95581C16.0511 3.95581 16.3309 3.67594 16.3309 3.33081V2.27588C16.3309 1.71019 16.7911 1.25 17.3568 1.25H22.3313C22.8969 1.25 23.3571 1.71019 23.3571 2.27588V3.33081C23.3571 3.67594 23.6369 3.95581 23.9821 3.95581H26.5729V4.70544C26.5729 5.03856 26.2941 5.31712 25.9611 5.31712H13.7272C13.3944 5.31712 13.1147 5.03856 13.1147 4.70544V3.95581H15.7059ZM9.90963 17.711C8.33044 15.9973 8.11357 13.3417 9.39344 11.3939C10.338 9.95525 11.9804 9.06962 13.701 9.06962C15.2569 9.06962 16.7424 9.78587 17.7185 10.9963C19.2332 12.8794 19.229 15.5881 17.7051 17.4662C15.7535 19.8674 12.0073 19.9891 9.90963 17.711ZM8.62126 18.121C8.97732 18.5842 9.39719 18.9667 9.84738 19.3362L8.63932 20.5443L7.41857 19.3237L8.62126 18.121ZM4.44694 25.9267C3.79376 26.5799 2.70338 26.5805 2.04976 25.9268C1.38888 25.2659 1.38888 24.1906 2.04976 23.5296L5.95319 19.6261L8.35038 22.0229L4.44694 25.9267Z" fill="currentColor"/>
<path d="M20.9936 2.65857C20.9926 2.65857 20.9916 2.65857 20.9905 2.65857C20.6606 2.66013 19.045 2.66013 18.7138 2.65857C18.7128 2.65857 18.7118 2.65857 18.7107 2.65857C18.3669 2.65857 18.0874 2.93638 18.0858 3.28051C18.0841 3.62563 18.3626 3.90682 18.7077 3.90857H20.9966C21.3417 3.90688 21.6202 3.62569 21.6185 3.28051C21.6169 2.93644 21.3373 2.65857 20.9936 2.65857Z" fill="currentColor"/>
<path d="M15.2764 22.0471C13.4339 22.0471 11.935 23.5461 11.935 25.3886C11.935 27.2311 13.4339 28.7301 15.2764 28.7301C16.6336 28.7301 17.846 27.9197 18.365 26.6657C18.497 26.3468 18.3455 25.9812 18.0265 25.8492C17.7075 25.7172 17.342 25.8687 17.21 26.1877C16.8851 26.9729 16.1261 27.4801 15.2764 27.4801C14.1231 27.4801 13.1849 26.5419 13.1849 25.3887C13.1849 24.2354 14.1232 23.2972 15.2764 23.2972C15.6216 23.2972 15.9014 23.0173 15.9014 22.6722C15.9014 22.3271 15.6216 22.0471 15.2764 22.0471Z" fill="currentColor"/>
<path d="M26.8733 11.934H21.7384C21.3933 11.934 21.1134 12.2138 21.1134 12.559C21.1134 12.9041 21.3933 13.184 21.7384 13.184H26.8733C27.2185 13.184 27.4983 12.9041 27.4983 12.559C27.4983 12.2138 27.2184 11.934 26.8733 11.934Z" fill="currentColor"/>
<path d="M24.9289 16.1494C25.2741 16.1494 25.5539 15.8695 25.5539 15.5244C25.5539 15.1793 25.2741 14.8994 24.9289 14.8994H21.7384C21.3933 14.8994 21.1134 15.1793 21.1134 15.5244C21.1134 15.8695 21.3933 16.1494 21.7384 16.1494H24.9289Z" fill="currentColor"/>
<path d="M27.4983 23.8446C27.4983 23.4995 27.2185 23.2196 26.8733 23.2196H21.3098C20.9646 23.2196 20.6848 23.4995 20.6848 23.8446C20.6848 24.1897 20.9646 24.4696 21.3098 24.4696H26.8733C27.2184 24.4696 27.4983 24.1897 27.4983 23.8446Z" fill="currentColor"/>
<path d="M21.3097 26.1851C20.9645 26.1851 20.6847 26.4649 20.6847 26.8101C20.6847 27.1552 20.9645 27.4351 21.3097 27.4351H24.9288C25.274 27.4351 25.5538 27.1552 25.5538 26.8101C25.5538 26.4649 25.274 26.1851 24.9288 26.1851H21.3097Z" fill="currentColor"/>
<path d="M15.1024 24.4994C14.8583 24.2554 14.4626 24.2554 14.2185 24.4994C13.9744 24.7434 13.9744 25.1392 14.2185 25.3833L15.0715 26.2362C15.3104 26.4751 15.7159 26.4757 15.9554 26.2362L18.2295 23.9622C18.4736 23.7181 18.4736 23.3224 18.2295 23.0782C17.9854 22.8343 17.5897 22.8342 17.3456 23.0782L15.5134 24.9104L15.1024 24.4994Z" fill="currentColor"/>
<path d="M31.6384 23.7481C31.5073 23.4337 31.1375 23.2798 30.8222 23.41C30.5075 23.5399 30.3535 23.9118 30.4841 24.2263C30.6147 24.541 30.9853 24.6948 31.3003 24.5644C31.6143 24.4343 31.7694 24.0623 31.6384 23.7481Z" fill="currentColor"/>
<path d="M12.4552 16.5122C12.6941 16.751 13.0996 16.7516 13.3391 16.5122L16.6121 13.2392C16.8562 12.9951 16.8562 12.5993 16.6121 12.3552C16.3681 12.1113 15.9723 12.1112 15.7283 12.3552L12.8971 15.1863L11.7374 14.0266C11.4933 13.7826 11.0976 13.7826 10.8535 14.0266C10.6094 14.2707 10.6094 14.6664 10.8535 14.9105L12.4552 16.5122Z" fill="currentColor"/>
</symbol>

<!-- Issue -->
<symbol id="issue-icon" viewBox="0 0 32 32" fill="none" xmlns="http://www.w3.org/2000/svg">
<path d="M24.4831 8.29744C24.4831 9.26687 23.7773 9.85645 23.262 10.2891C23.0668 10.453 22.7035 10.752 22.7045 10.8637C22.708 11.3018 22.3557 11.6517 21.9175 11.6517C21.9153 11.6517 21.9131 11.6517 21.9109 11.6517C21.4758 11.6517 21.1212 11.3126 21.1177 10.8767C21.1107 10.0174 21.7378 9.50286 22.2417 9.07981C22.637 8.74782 22.8963 8.51421 22.8963 8.30044C22.8963 7.86769 22.5442 7.5156 22.1115 7.5156C21.6785 7.5156 21.3264 7.86769 21.3264 8.30044C21.3264 8.73865 20.9712 9.09383 20.533 9.09383C20.0948 9.09383 19.7396 8.73865 19.7396 8.30044C19.7396 6.99276 20.8035 5.92882 22.1113 5.92882C23.4192 5.92874 24.4831 6.98967 24.4831 8.29744ZM21.9329 12.3841C21.4947 12.3841 21.157 12.7393 21.157 13.1775V13.1836C21.157 13.6218 21.4947 13.974 21.9329 13.974C22.371 13.974 22.7263 13.6157 22.7263 13.1775C22.7263 12.7393 22.3711 12.3841 21.9329 12.3841ZM5.94089 17.9108C5.50268 17.9108 5.1475 18.2659 5.1475 18.7041C5.1475 19.1424 5.50268 19.4975 5.94089 19.4975H6.00701C6.44522 19.4975 6.8004 19.1424 6.8004 18.7041C6.8004 18.2659 6.44522 17.9108 6.00701 17.9108H5.94089ZM8.69827 17.9108C8.26005 17.9108 7.90488 18.2659 7.90488 18.7041C7.90488 19.1424 8.26005 19.4975 8.69827 19.4975H8.7643C9.20251 19.4975 9.55769 19.1424 9.55769 18.7041C9.55769 18.2659 9.20251 17.9108 8.7643 17.9108H8.69827ZM32 5.23866V14.1688C32 16.2832 30.3046 17.9989 28.1902 17.9989H17.9011C17.7 17.9989 17.5343 17.9978 17.3957 17.9949C17.2506 17.9919 17.0871 17.9907 17.0234 17.9978C16.957 18.0418 16.7943 18.1909 16.6374 18.3354C16.5753 18.3926 16.5049 18.4555 16.429 18.5248L13.518 21.1781C13.2858 21.3899 12.9423 21.4448 12.6547 21.318C12.3672 21.1911 12.1653 20.9064 12.1653 20.5921V12.1807H3.8541C2.61448 12.1807 1.58678 13.1965 1.58678 14.436V23.3661C1.58678 24.6056 2.61457 25.5802 3.8541 25.5802H15.3471C15.545 25.5802 15.7302 25.6711 15.8763 25.8045L18.2479 27.9911V20.4505C18.2479 20.0123 18.6031 19.6571 19.0413 19.6571C19.4795 19.6571 19.8347 20.0123 19.8347 20.4505V29.7894C19.8347 30.1036 19.6549 30.3841 19.3672 30.511C19.2644 30.5564 19.161 30.5743 19.0529 30.5743C18.8586 30.5743 18.6669 30.4945 18.5179 30.3584L15.0396 27.1669H3.8541C1.73964 27.1669 0 25.4805 0 23.366V14.436C0 12.3216 1.73964 10.5939 3.8541 10.5939H12.1653V5.23866C12.1653 3.1242 13.9182 1.4259 16.0327 1.4259H28.1903C30.3046 1.4259 32 3.1242 32 5.23866ZM30.4132 5.23866C30.4132 3.99913 29.4297 3.01268 28.1902 3.01268H16.0327C14.7932 3.01268 13.7521 3.99913 13.7521 5.23866V11.3947V18.7939L15.3472 17.3523C15.4211 17.2849 15.5039 17.2231 15.5643 17.1674C16.2927 16.4962 16.479 16.3889 17.4292 16.4085C17.5587 16.4112 17.7131 16.4122 17.9011 16.4122H28.1902C29.4297 16.4122 30.4132 15.4083 30.4132 14.1689V5.23866Z" fill="currentColor"/>
</symbol>

<!-- Robust Validation -->
<symbol id="validation-icon" viewBox="0 0 32 32" fill="none" xmlns="http://www.w3.org/2000/svg">
<path d="M31.142 14.6076H24.5666V1.89233C24.5666 1.36597 24.1384 0.9375 23.612 0.9375H13.0871C12.8283 0.9375 12.6184 1.14746 12.6184 1.40625C12.6184 1.66528 12.8283 1.875 13.0871 1.875H23.612C23.6215 1.875 23.6293 1.88281 23.6293 1.89233V14.6074H22.6765V3.29663C22.6765 3.03759 22.4665 2.82788 22.2077 2.82788H2.35913C2.10009 2.82788 1.89038 3.03759 1.89038 3.29663V18.9233C1.89038 19.1823 2.10009 19.3921 2.35913 19.3921H12.1474V20.3449H0.954832C0.945311 20.3449 0.937498 20.3374 0.937498 20.3276V1.89233C0.937498 1.88281 0.945311 1.875 0.954832 1.875H10.8996C11.1587 1.875 11.3684 1.66528 11.3684 1.40625C11.3684 1.14746 11.1587 0.9375 10.8996 0.9375H0.954832C0.428222 0.9375 0 1.36597 0 1.89233V20.3276C0 20.8542 0.428222 21.2824 0.954832 21.2824H12.1474V30.2226C12.1474 30.6957 12.5322 31.0805 13.0053 31.0805H31.142C31.6152 31.0805 31.9999 30.6957 31.9999 30.2226C31.9999 29.531 31.9999 24.5617 31.9999 23.9335C31.9999 23.6745 31.7902 23.4648 31.5312 23.4648C31.2724 23.4648 31.0624 23.6745 31.0624 23.9335V27.4111H13.0849C13.0849 27.1066 13.0849 18.5818 13.0849 18.2771H31.0624V21.7461C31.0624 22.0048 31.2722 22.2148 31.5312 22.2148C31.7902 22.2148 31.9999 22.0048 31.9999 21.7461V15.4653C31.9999 14.9924 31.6152 14.6076 31.142 14.6076ZM7.56053 18.4546H2.82788V18.0105L7.63304 11.0732C7.63744 11.0666 7.64647 11.0666 7.65086 11.0732L10.1325 14.698C9.59861 15.478 8.09422 17.675 7.56053 18.4546ZM28.8474 28.3486H31.0624V30.143H28.8474V28.3486ZM25.6948 28.3486H27.9099V30.143H25.6948V28.3486ZM22.5424 28.3486H24.7573V30.143H22.5424V28.3486ZM19.3899 28.3486H21.6049V30.143H19.3899V28.3486ZM16.2375 28.3486H18.4524V30.143H16.2375V28.3486ZM15.3 28.3486V30.143H13.0849V28.3486H15.3ZM13.0053 14.6076C12.5322 14.6076 12.1474 14.9924 12.1474 15.4655V18.4548H8.69652C9.0261 17.9738 15.8762 7.96849 16.1894 7.51097C16.1938 7.50463 16.2031 7.50463 16.2072 7.51073L21.0612 14.6076H13.0053ZM15.3 17.3396H13.0849V15.5451H15.3V17.3396ZM18.4524 17.3396H16.2375V15.5451H18.4524V17.3396ZM21.6049 17.3396H19.3899V15.5451H21.6049V17.3396ZM21.739 13.9377L16.9809 6.98143C16.6035 6.42992 15.7915 6.43285 15.416 6.98143L10.7007 13.8681L8.4243 10.5437C8.04784 9.99364 7.23485 9.99534 6.86083 10.5415L2.82788 16.364V3.76538H21.739V13.9377ZM24.7573 17.3396H22.5424V15.5451H24.7573V17.3396ZM27.9099 17.3396H25.695V15.5451H27.9099V17.3396ZM31.0624 17.3396H28.8474V15.5451H31.0624V17.3396Z" fill="currentColor"/>
</symbol>

<!-- Report & Analytics -->
<symbol id="analytics-icon" viewBox="0 0 32 32" fill="none" xmlns="http://www.w3.org/2000/svg">
<path d="M28.5 17.265V7.46C30.1935 7.216 31.5 5.7595 31.5 4C31.5 2.0705 29.93 0.5 28 0.5C26.07 0.5 24.5 2.0705 24.5 4H0.5V24H15.5255C15.7855 28.178 19.258 31.5 23.5 31.5C27.911 31.5 31.5 27.911 31.5 23.5C31.5 20.9805 30.3265 18.7325 28.5 17.265ZM28 1.5C29.3785 1.5 30.5 2.6215 30.5 4C30.5 5.3785 29.3785 6.5 28 6.5C26.6215 6.5 25.5 5.3785 25.5 4C25.5 2.6215 26.6215 1.5 28 1.5ZM1.5 5H24.6475C24.767 5.399 24.957 5.7665 25.201 6.0925L22.143 9.1505C21.947 9.0565 21.731 9 21.5 9C21.269 9 21.053 9.0565 20.8575 9.1505L19.85 8.143C19.9435 7.947 20 7.731 20 7.5C20 6.673 19.327 6 18.5 6C17.673 6 17 6.673 17 7.5C17 7.731 17.0565 7.947 17.1505 8.1425L14.643 10.65C14.447 10.5565 14.231 10.5 14 10.5C13.173 10.5 12.5 11.173 12.5 12C12.5 12.827 13.173 13.5 14 13.5C14.827 13.5 15.5 12.827 15.5 12C15.5 11.769 15.4435 11.553 15.3495 11.3575L17.857 8.85C18.053 8.9435 18.269 9 18.5 9C18.731 9 18.947 8.9435 19.1425 8.8495L20.15 9.857C20.0565 10.053 20 10.269 20 10.5C20 11.327 20.673 12 21.5 12C22.327 12 23 11.327 23 10.5C23 10.269 22.9435 10.053 22.8495 9.8575L25.908 6.7995C26.3655 7.1425 26.9085 7.375 27.5 7.4605V16.583C26.3215 15.8985 24.958 15.5 23.5 15.5C21.11 15.5 18.967 16.559 17.5 18.2265V16H14.5V22H15.646C15.584 22.3265 15.5465 22.661 15.5255 23H1.5V5ZM21.5 10C21.7755 10 22 10.224 22 10.5C22 10.776 21.7755 11 21.5 11C21.2245 11 21 10.776 21 10.5C21 10.224 21.2245 10 21.5 10ZM18 7.5C18 7.224 18.2245 7 18.5 7C18.7755 7 19 7.224 19 7.5C19 7.776 18.7755 8 18.5 8C18.2245 8 18 7.776 18 7.5ZM14.5 12C14.5 12.276 14.2755 12.5 14 12.5C13.7245 12.5 13.5 12.276 13.5 12C13.5 11.724 13.7245 11.5 14 11.5C14.2755 11.5 14.5 11.724 14.5 12ZM23.5 27.5C21.2945 27.5 19.5 25.7055 19.5 23.5C19.5 21.2945 21.2945 19.5 23.5 19.5C25.7055 19.5 27.5 21.2945 27.5 23.5C27.5 25.7055 25.7055 27.5 23.5 27.5ZM16.5 19.6355C16.2605 20.0675 16.0625 20.524 15.9055 21H15.5V17H16.5V19.6355ZM23 16.5255V18.5255C20.477 18.7775 18.5 20.912 18.5 23.5C18.5 24.2315 18.662 24.925 18.9455 25.552L17.211 26.5535C16.76 25.6295 16.5 24.5955 16.5 23.5C16.5 19.809 19.3735 16.7835 23 16.5255ZM23.5 30.5C21.093 30.5 18.966 29.2785 17.706 27.4225L19.4475 26.417C20.3565 27.676 21.832 28.5 23.5 28.5C25.168 28.5 26.6435 27.676 27.5525 26.417L29.294 27.4225C28.034 29.2785 25.907 30.5 23.5 30.5ZM29.789 26.5535L28.0545 25.552C28.338 24.925 28.5 24.2315 28.5 23.5C28.5 20.912 26.523 18.777 24 18.5255V16.5255C27.6265 16.7835 30.5 19.809 30.5 23.5C30.5 24.5955 30.24 25.6295 29.789 26.5535Z" fill="currentColor"/>
<path d="M23.5 20.5C21.8455 20.5 20.5 21.8455 20.5 23.5C20.5 25.1545 21.8455 26.5 23.5 26.5C25.1545 26.5 26.5 25.1545 26.5 23.5C26.5 21.8455 25.1545 20.5 23.5 20.5ZM23.5 25.5C22.397 25.5 21.5 24.603 21.5 23.5C21.5 22.397 22.397 21.5 23.5 21.5C24.603 21.5 25.5 22.397 25.5 23.5C25.5 24.603 24.603 25.5 23.5 25.5Z" fill="currentColor"/>
<path d="M2.5 6H3.5V7H2.5V6Z" fill="currentColor"/>
<path d="M4.5 6H11.5V7H4.5V6Z" fill="currentColor"/>
<path d="M2.5 8H3.5V9H2.5V8Z" fill="currentColor"/>
<path d="M4.5 8H11.5V9H4.5V8Z" fill="currentColor"/>
<path d="M2.5 10H3.5V11H2.5V10Z" fill="currentColor"/>
<path d="M4.5 10H11.5V11H4.5V10Z" fill="currentColor"/>
<path d="M2.5 12H3.5V13H2.5V12Z" fill="currentColor"/>
<path d="M4.5 12H11.5V13H4.5V12Z" fill="currentColor"/>
<path d="M2.5 22H5.5V17H2.5V22ZM3.5 18H4.5V21H3.5V18Z" fill="currentColor"/>
<path d="M6.5 22H9.5V18H6.5V22ZM7.5 19H8.5V21H7.5V19Z" fill="currentColor"/>
<path d="M10.5 22H13.5V14H10.5V22ZM11.5 15H12.5V21H11.5V15Z" fill="currentColor"/>
</symbol>

<!-- Group steps-work_bloc-2 -->

<!-- Food -->
<symbol id="food-icon" viewBox="0 0 33 32" fill="none" xmlns="http://www.w3.org/2000/svg">
<g clip-path="url(#clip0_24:365)">
<path d="M30.8895 9.30004C30.7936 9.19982 30.6609 9.14282 30.5218 9.14282H15.7792C15.6402 9.14282 15.5073 9.19982 15.4115 9.30004C15.3155 9.40026 15.2648 9.5356 15.2712 9.67452L15.6384 17.5634C15.6514 17.8432 15.8931 18.064 16.1699 18.0471C16.4504 18.0342 16.6672 17.7961 16.6543 17.5158L16.3118 10.1587H29.9897L29.0201 30.984H17.6031C17.3223 30.984 17.0947 31.2112 17.0947 31.492C17.0947 31.7728 17.3223 31.9999 17.6031 31.9999H29.5052C29.7768 31.9999 30.0003 31.7866 30.0131 31.5157L31.0298 9.67452C31.0362 9.5356 30.9856 9.40026 30.8895 9.30004Z" fill="currentColor"/>
<path d="M21.3714 27.9365H3.07011C2.78937 27.9365 2.56172 28.1637 2.56172 28.4445C2.56172 30.4048 4.15809 32 6.12032 32H18.3212C20.2833 32 21.8798 30.4047 21.8798 28.4445C21.8797 28.1637 21.6521 27.9365 21.3714 27.9365ZM18.3212 30.9841H6.12032C4.89272 30.9841 3.86558 30.1101 3.62959 28.9524H20.8119C20.5757 30.1101 19.5486 30.9841 18.3212 30.9841Z" fill="currentColor"/>
<path d="M21.3713 24.8889H3.07011C1.94893 24.8889 1.03662 25.8001 1.03662 26.9207C1.03662 28.0412 1.94885 28.9524 3.07011 28.9524H21.3713C22.4925 28.9524 23.4048 28.0412 23.4048 26.9207C23.4048 25.8001 22.4925 24.8889 21.3713 24.8889ZM21.3713 27.9365H3.07011C2.50937 27.9365 2.0534 27.4806 2.0534 26.9207C2.0534 26.3607 2.50945 25.9048 3.07011 25.9048H21.3713C21.9321 25.9048 22.3881 26.3607 22.3881 26.9207C22.3881 27.4806 21.932 27.9365 21.3713 27.9365Z" fill="currentColor"/>
<path d="M22.8963 15.2383C20.5769 15.2383 18.5527 16.8039 17.9738 19.0449C17.9035 19.3168 18.0671 19.5935 18.3389 19.6639C18.6113 19.7334 18.8879 19.5707 18.9582 19.2988C19.4211 17.5061 21.0405 16.2541 22.8963 16.2541C25.1388 16.2541 26.9632 18.077 26.9632 20.3176C26.9632 22.5582 25.1388 24.381 22.8963 24.381C22.4299 24.381 21.9731 24.3032 21.539 24.1494C21.2746 24.0567 20.9837 24.1941 20.8901 24.4585C20.7963 24.7228 20.9349 25.013 21.1995 25.1068C21.7429 25.2992 22.3138 25.3969 22.8964 25.3969C25.6996 25.3969 27.9799 23.1182 27.9799 20.3176C27.9799 17.5169 25.6996 15.2383 22.8963 15.2383Z" fill="currentColor"/>
<path d="M13.2375 16.762H11.204C6.43852 16.762 2.56172 20.6355 2.56172 25.3968C2.56172 25.6775 2.78937 25.9048 3.07011 25.9048H21.3714C21.6521 25.9048 21.8798 25.6776 21.8798 25.3968C21.8797 20.6355 18.0029 16.762 13.2375 16.762ZM3.59534 24.8889C3.85791 20.9236 7.17002 17.7779 11.204 17.7779H13.2375C17.2714 17.7779 20.5835 20.9236 20.8461 24.8889H3.59534Z" fill="currentColor"/>
<path d="M8.15374 19.8096H7.13703V20.8254H8.15374V19.8096Z" fill="currentColor"/>
<path d="M7.64535 21.8413H6.62864V22.8572H7.64535V21.8413Z" fill="currentColor"/>
<path d="M13.7458 19.3015H12.729V20.3174H13.7458V19.3015Z" fill="currentColor"/>
<path d="M16.796 21.8413H15.7793V22.8572H16.796V21.8413Z" fill="currentColor"/>
<path d="M12.2207 22.3491H11.2039V23.365H12.2207V22.3491Z" fill="currentColor"/>
<path d="M31.5387 7.11133H14.2542C13.9734 7.11133 13.7458 7.33848 13.7458 7.61929V9.65104C13.7458 9.93177 13.9734 10.159 14.2542 10.159H31.5387C31.8194 10.159 32.0471 9.93184 32.0471 9.65104V7.61929C32.0471 7.33848 31.8194 7.11133 31.5387 7.11133ZM31.0303 9.14301H14.7625V8.12717H31.0303V9.14301Z" fill="currentColor"/>
<path d="M18.3099 7.51272L16.7848 0.401671C16.726 0.127862 16.4562 -0.0477319 16.1811 0.011866C15.9066 0.0704223 15.7316 0.340734 15.7904 0.615063L17.3155 7.72612C17.3666 7.96421 17.5776 8.12738 17.8122 8.12738C17.8474 8.12738 17.8835 8.12381 17.9192 8.11592C18.1938 8.05736 18.3688 7.78698 18.3099 7.51272Z" fill="currentColor"/>
</g>
<defs>
<clipPath id="clip0_24:365">
<rect width="32.0273" height="32" fill="white" transform="translate(0.528156)"/>
</clipPath>
</defs>
</symbol>

<!-- Shop -->
<symbol id="shop-icon" viewBox="0 0 33 32" fill="none" xmlns="http://www.w3.org/2000/svg">
<g clip-path="url(#clip0_24:679)">
<path d="M30.4858 21.3247C30.2265 21.3247 30.0166 21.5347 30.0166 21.7935V29.2666H20.3463V20.3953C20.3463 19.792 19.8551 19.3013 19.2516 19.3013H13.8319C13.2284 19.3013 12.7373 19.7922 12.7373 20.3953V29.2666H3.0669V21.7935C3.0669 21.5347 2.85701 21.3247 2.59775 21.3247C2.3385 21.3247 2.1286 21.5347 2.1286 21.7935V29.4854C2.1286 29.8816 2.45139 30.2041 2.84796 30.2041H30.2356C30.6322 30.2041 30.9549 29.8816 30.9549 29.4854V21.7935C30.9549 21.5347 30.745 21.3247 30.4858 21.3247ZM13.6756 29.2666V20.3953C13.6756 20.3091 13.7457 20.2388 13.8319 20.2388H19.2516C19.3379 20.2388 19.408 20.3091 19.408 20.3953V29.2666H13.6756Z" fill="currentColor"/>
<path d="M28.2571 27.4148C28.8078 27.4148 29.256 26.967 29.256 26.4167V21.3015C29.256 20.7512 28.8078 20.3037 28.2571 20.3037H22.4511C21.9003 20.3037 21.4522 20.7512 21.4522 21.3015V26.4167C21.4522 26.967 21.9003 27.4148 22.4511 27.4148H28.2571ZM22.3905 26.4167V21.3015C22.3905 21.2683 22.4176 21.2412 22.4511 21.2412H28.2571C28.2906 21.2412 28.3177 21.2683 28.3177 21.3015V26.4167C28.3177 26.4502 28.2906 26.4773 28.2571 26.4773H22.4511C22.4176 26.4773 22.3905 26.4502 22.3905 26.4167Z" fill="currentColor"/>
<path d="M10.6324 27.4148C11.1832 27.4148 11.6313 26.967 11.6313 26.4167V21.3015C11.6313 20.7512 11.1832 20.3037 10.6324 20.3037H4.82647C4.27571 20.3037 3.82758 20.7512 3.82758 21.3015V26.4167C3.82758 26.967 4.27571 27.4148 4.82647 27.4148H10.6324ZM4.76588 26.4167V21.3015C4.76588 21.2683 4.793 21.2412 4.82647 21.2412H10.6324C10.6659 21.2412 10.693 21.2683 10.693 21.3015V26.4167C10.693 26.4502 10.6659 26.4773 10.6324 26.4773H4.82647C4.793 26.4773 4.76588 26.4502 4.76588 26.4167Z" fill="currentColor"/>
<path d="M31.1768 8.72314C31.1768 8.22241 31.5846 7.81519 32.0863 7.81519C32.3455 7.81519 32.5554 7.60522 32.5554 7.34644V6.19946C32.5554 5.94067 32.3455 5.73071 32.0863 5.73071H24.3417C24.0824 5.73071 23.8725 5.94067 23.8725 6.19946C23.8725 6.4585 24.0824 6.66821 24.3417 6.66821H31.6171V6.93799C30.9747 7.10645 30.4677 7.61279 30.2989 8.25439H22.9183V4.09326C22.9183 2.83569 21.8943 1.8125 20.6356 1.8125H12.4482C11.1893 1.8125 10.1655 2.83569 10.1655 4.09326V5.73071H0.997287C0.738033 5.73071 0.528137 5.94067 0.528137 6.19946V7.34644C0.528137 7.60522 0.738033 7.81519 0.997287 7.81519C1.49894 7.81519 1.90675 8.22241 1.90675 8.72314C1.90675 8.89233 1.99643 9.04053 2.13082 9.12305V12.3247H1.2866C0.889774 12.3247 0.566989 12.6472 0.566989 13.0435V15.5959C0.566989 15.9922 0.889774 16.3147 1.2866 16.3147H2.13082V19.9219C2.13082 20.1807 2.34072 20.3906 2.59997 20.3906C2.85923 20.3906 3.06912 20.1807 3.06912 19.9219V16.3147H30.0533V19.9226C30.0533 20.1814 30.2632 20.3914 30.5225 20.3914C30.7815 20.3914 30.9916 20.1814 30.9916 19.9226V16.3147H31.8358C32.2327 16.3147 32.5554 15.9922 32.5554 15.5959V13.0435C32.5554 12.6472 32.2327 12.3247 31.8358 12.3247H30.9916V9.09644C31.104 9.01074 31.1768 8.87549 31.1768 8.72314ZM11.1036 4.09326C11.1036 3.35254 11.7069 2.75 12.448 2.75H20.6354C21.3767 2.75 21.9798 3.35254 21.9798 4.09326V9.20776C21.9798 9.94849 21.3767 10.551 20.6354 10.551H12.4482C11.7069 10.551 11.1038 9.94849 11.1038 9.20776V4.09326H11.1036ZM31.6171 15.3772H1.50529V13.2622H31.6171V15.3772ZM3.06912 12.3247V9.19189H8.7583C9.01755 9.19189 9.22745 8.98218 9.22745 8.72314C9.22745 8.46436 9.01755 8.25439 8.7583 8.25439H2.7847C2.61585 7.61279 2.10883 7.10645 1.46644 6.93799V6.66821H10.1653V9.20801C10.1653 10.4656 11.1893 11.4888 12.448 11.4888H20.6354C21.8943 11.4888 22.9181 10.4656 22.9181 9.20801V9.19214H30.0531V12.3247H3.06912Z" fill="currentColor"/>
<path d="M14.7278 24.2842H14.3525C14.0932 24.2842 13.8833 24.4941 13.8833 24.7529C13.8833 25.0117 14.0932 25.2217 14.3525 25.2217H14.7278C14.987 25.2217 15.1969 25.0117 15.1969 24.7529C15.1969 24.4941 14.987 24.2842 14.7278 24.2842Z" fill="currentColor"/>
<path d="M13.1812 4.62109H13.7562L14.3461 7.43848C14.4604 7.98438 14.9486 8.38086 15.507 8.38086H18.2928C18.7832 8.38086 19.2291 8.07275 19.4024 7.6145L20.3224 5.18115C20.4098 4.94946 20.3781 4.6897 20.2373 4.48633C20.0966 4.28271 19.8644 4.16113 19.6169 4.16113H15.6768C15.4178 4.16113 15.2076 4.37085 15.2076 4.62988C15.2076 4.88867 15.4178 5.09863 15.6768 5.09863H19.3506L18.5247 7.2832C18.4885 7.37891 18.3954 7.44336 18.293 7.44336H15.507C15.3904 7.44336 15.2885 7.36035 15.2646 7.24658L14.6723 4.41821C14.5831 3.99243 14.2026 3.68359 13.7672 3.68359H13.1815C12.9222 3.68359 12.7123 3.89331 12.7123 4.15234C12.7123 4.41113 12.9222 4.62109 13.1812 4.62109Z" fill="currentColor"/>
<path d="M15.5878 8.77393H15.4627C15.2035 8.77393 14.9936 8.98364 14.9936 9.24268C14.9936 9.50146 15.2035 9.71143 15.4627 9.71143H15.5878C15.8471 9.71143 16.057 9.50146 16.057 9.24268C16.057 8.98364 15.8471 8.77393 15.5878 8.77393Z" fill="currentColor"/>
<path d="M17.6208 8.77393H17.4957C17.2364 8.77393 17.0266 8.98364 17.0266 9.24268C17.0266 9.50146 17.2364 9.71143 17.4957 9.71143H17.6208C17.8801 9.71143 18.09 9.50146 18.09 9.24268C18.09 8.98364 17.8801 8.77393 17.6208 8.77393Z" fill="currentColor"/>
</g>
<defs>
<clipPath id="clip0_24:679">
<rect width="32.0273" height="32" fill="white" transform="translate(0.528137)"/>
</clipPath>
</defs>
</symbol>

<!-- Builder -->
<symbol id="builder-icon" viewBox="0 0 33 32" fill="none" xmlns="http://www.w3.org/2000/svg">
<rect width="33" height="32" fill="#E5E5E5"/>
<g clip-path="url(#clip0_0:1)">
<rect width="1440" height="7499" transform="translate(-752 -4501)" fill="white"/>
<rect width="1440" height="6731" transform="matrix(1 0 0 -1 -752 2998)" fill="white"/>
<g clip-path="url(#clip1_0:1)">
<path d="M29.9846 24.8775V23.98C29.9846 23.7212 29.7747 23.5113 29.5154 23.5113C29.2564 23.5113 29.0463 23.7212 29.0463 23.98V24.7244C29.0138 24.7234 28.9813 24.7229 28.9485 24.7229H18.6624V21.2886H29.0463V22.0945C29.0463 22.3533 29.2564 22.5633 29.5154 22.5633C29.7747 22.5633 29.9846 22.3533 29.9846 22.0945V21.1973C29.9846 20.7308 29.6049 20.3511 29.1377 20.3511H25.0121V19.4246C25.0121 17.4502 23.8551 16.1502 21.4751 15.4502C21.4609 15.4461 21.4468 15.4424 21.4321 15.4397L16.787 14.5371V13.5581C16.949 13.4463 17.1071 13.3242 17.2613 13.1917C18.0948 12.4746 18.6267 11.4478 18.7587 10.3242C19.3832 10.2537 19.8702 9.72292 19.8702 9.08034V8.25319C20.2761 8.06325 20.5576 7.65138 20.5576 7.17482C20.5576 6.60695 20.1573 6.13063 19.6239 6.01271V5.71534C19.6239 2.73609 17.198 0.3125 14.2165 0.3125H13.7676C12.0222 0.3125 10.375 1.16138 9.361 2.58326C9.21072 2.79419 9.25984 3.08692 9.47095 3.23707C9.68207 3.38746 9.9748 3.33814 10.1251 3.1272C10.495 2.6084 10.9671 2.18189 11.5027 1.86743V2.75464C11.5027 3.01368 11.7129 3.22339 11.9719 3.22339C12.2311 3.22339 12.441 3.01368 12.441 2.75464V1.45215C12.7987 1.34058 13.1719 1.27344 13.5523 1.25513V3.87427C13.5523 4.13306 13.7622 4.34303 14.0215 4.34303C14.2805 4.34303 14.4906 4.13306 14.4906 3.87427V1.2583C14.8547 1.28028 15.2073 1.34619 15.543 1.45069V2.75464C15.543 3.01368 15.7529 3.22339 16.0122 3.22339C16.2712 3.22339 16.4813 3.01368 16.4813 2.75464V1.8667C17.7994 2.64405 18.6856 4.07813 18.6856 5.7151V5.98463H9.29844V5.7151C9.29844 5.36231 9.33974 5.01148 9.42111 4.67188C9.48122 4.42017 9.32581 4.16724 9.07389 4.10694C8.82147 4.04639 8.56882 4.20216 8.50846 4.45387C8.40999 4.86475 8.36014 5.28907 8.36014 5.7151V6.01271C7.82673 6.13063 7.42648 6.60695 7.42648 7.17482C7.42648 7.65114 7.70822 8.06325 8.11384 8.25319V9.08034C8.11384 9.72267 8.60083 10.2537 9.22538 10.324C9.35733 11.4478 9.88952 12.4746 10.7228 13.1917C10.8769 13.3242 11.035 13.4463 11.197 13.5579V14.5371L6.55196 15.4395C6.53729 15.4424 6.52312 15.4458 6.50895 15.45C4.12899 16.1502 2.97199 17.4502 2.97199 19.4246V24.8772C1.52202 25.3211 0.464722 26.6712 0.464722 28.2635C0.464722 30.2156 2.05421 31.804 4.00828 31.804H28.9485C30.9024 31.804 32.4921 30.2156 32.4921 28.2635C32.4921 26.6712 31.4348 25.3211 29.9846 24.8775V24.8775ZM21.5364 16.4522C23.2877 17.0415 24.0738 17.9681 24.0738 19.4246V20.3511H21.5364V16.4522ZM8.36478 7.17482C8.36478 7.03541 8.47816 6.92213 8.61744 6.92213H19.3666C19.5061 6.92213 19.6195 7.03566 19.6195 7.17482C19.6195 7.31398 19.5059 7.42726 19.3666 7.42726H8.61744C8.47816 7.42726 8.36478 7.31422 8.36478 7.17482ZM10.1322 9.85329C10.1265 9.59841 9.91836 9.39455 9.66301 9.39455H9.36662C9.19337 9.39455 9.05214 9.25368 9.05214 9.08034V8.36501H18.9319V9.08034C18.9319 9.25368 18.7909 9.39455 18.6174 9.39455H18.321C18.0659 9.39455 17.8575 9.59841 17.8521 9.85329C17.8299 10.8848 17.3915 11.8426 16.6492 12.4812C15.8758 13.1465 14.982 13.49 13.9922 13.5022C13.0023 13.49 12.1085 13.1465 11.3351 12.4812C10.5928 11.8426 10.1542 10.8848 10.1322 9.85329V9.85329ZM15.8487 14.0694V14.9236C15.8487 15.9463 15.0157 16.7786 13.9922 16.7786C12.9683 16.7786 12.1353 15.9466 12.1353 14.9236V14.0694C12.7147 14.3081 13.3334 14.4324 13.9868 14.4397H13.9973C14.6507 14.4324 15.2694 14.3084 15.8487 14.0694V14.0694ZM9.66203 15.7906L11.2532 15.4812C11.5125 16.7549 12.6421 17.7161 13.9922 17.7161C15.3422 17.7161 16.4716 16.7549 16.7311 15.4812L18.322 15.7906V18.4373C18.322 18.6936 18.1131 18.9021 17.8565 18.9021H10.1278C9.87095 18.9021 9.66228 18.6936 9.66228 18.4373V15.7906H9.66203ZM7.38592 16.2327L8.72398 15.9727V18.4373C8.72398 19.2107 9.35367 19.8396 10.1278 19.8396H17.8565C18.6304 19.8396 19.2603 19.2107 19.2603 18.4373V15.9727L20.5981 16.2327V20.3511H18.5713C18.1041 20.3511 17.7241 20.7308 17.7241 21.1973V24.7229H7.38592V16.2327ZM3.91054 19.4246C3.91054 17.9681 4.69637 17.0415 6.44762 16.4522V20.3511H3.91054V19.4246ZM3.91054 21.2886H6.44762V24.7229H4.00828C3.97553 24.7229 3.94279 24.7234 3.91054 24.7244V21.2886ZM28.9485 30.8665H4.00828C2.57175 30.8665 1.40302 29.6988 1.40302 28.2635C1.40302 26.8282 2.57175 25.6604 4.00828 25.6604H28.9485C30.3851 25.6604 31.5538 26.8282 31.5538 28.2635C31.5538 29.6988 30.3851 30.8665 28.9485 30.8665Z" fill="currentColor"/>
<path d="M28.9486 26.4756H4.00831C3.02138 26.4756 2.21844 27.2778 2.21844 28.2637C2.21844 29.2498 3.02138 30.0518 4.00831 30.0518H28.9486C29.9355 30.0518 30.7382 29.2498 30.7382 28.2637C30.7384 27.2778 29.9355 26.4756 28.9486 26.4756ZM4.00831 29.1145C3.58656 29.1145 3.23543 28.8064 3.16848 28.4036C3.16774 28.4001 3.16725 28.3967 3.16677 28.3931C3.16554 28.3862 3.16457 28.3792 3.16383 28.3721C3.16334 28.3684 3.16286 28.365 3.16237 28.3613C3.1609 28.3472 3.15944 28.3328 3.1587 28.3184C3.15748 28.3003 3.15675 28.282 3.15675 28.2637C3.15675 28.2454 3.15748 28.2273 3.1587 28.2092C3.15944 28.1948 3.1609 28.1804 3.16237 28.1663C3.16286 28.1626 3.16334 28.1592 3.16383 28.1555C3.16457 28.1484 3.16554 28.1414 3.16677 28.1345C3.16725 28.1309 3.16774 28.1274 3.16848 28.1238C3.23543 27.7212 3.58656 27.4131 4.00831 27.4131C4.4777 27.4131 4.85962 27.7947 4.85962 28.2637C4.85962 28.7327 4.4777 29.1143 4.00831 29.1145ZM10.291 29.1145H5.58216C5.71973 28.8613 5.79792 28.5715 5.79792 28.2637C5.79792 27.9561 5.71973 27.6663 5.58216 27.4131H10.291C10.1535 27.6663 10.0753 27.9561 10.0753 28.2637C10.0753 28.5713 10.1535 28.8613 10.291 29.1145ZM11.8649 29.1145C11.3952 29.1145 11.0136 28.7329 11.0136 28.2637C11.0136 27.7947 11.3952 27.4131 11.8649 27.4131C12.3343 27.4131 12.7162 27.7947 12.7162 28.2637C12.7162 28.7329 12.3343 29.1145 11.8649 29.1145ZM19.5181 29.1145H13.4387C13.5763 28.8613 13.6545 28.5715 13.6545 28.2637C13.6545 27.9561 13.5763 27.6663 13.4387 27.4131H19.5181C19.3806 27.6663 19.3024 27.9561 19.3024 28.2637C19.3024 28.5713 19.3806 28.8613 19.5181 29.1145ZM21.092 29.1145C20.6226 29.1145 20.2407 28.7329 20.2407 28.2637C20.2407 27.7947 20.6226 27.4131 21.092 27.4131C21.5616 27.4131 21.9433 27.7947 21.9433 28.2637C21.9433 28.7329 21.5616 29.1145 21.092 29.1145ZM22.6659 29.1145C22.8034 28.8613 22.8816 28.5715 22.8816 28.2637C22.8816 27.9561 22.8034 27.6663 22.6659 27.4131H27.3747C27.2372 27.6663 27.159 27.9561 27.159 28.2637C27.159 28.5715 27.2372 28.8613 27.3747 29.1145H22.6659ZM28.9486 29.1145C28.4792 29.1145 28.0973 28.7327 28.0973 28.2637C28.0973 27.7947 28.4792 27.4131 28.9486 27.4131C29.418 27.4131 29.8001 27.7947 29.8001 28.2637C29.8001 28.7329 29.418 29.1145 28.9486 29.1145Z" fill="currentColor"/>
</g>
</g>
<defs>
<clipPath id="clip0_0:1">
<rect width="1440" height="7499" fill="white" transform="translate(-752 -4501)"/>
</clipPath>
<clipPath id="clip1_0:1">
<rect width="32.0273" height="32" fill="white" transform="translate(0.527283)"/>
</clipPath>
</defs>
</symbol>

<!-- Flower -->
<symbol id="flower-icon" viewBox="0 0 33 32" fill="none" xmlns="http://www.w3.org/2000/svg">
<g clip-path="url(#clip0_24:691)">
<path d="M31.0443 22.7728C30.5579 22.0195 29.5832 21.8219 28.8608 22.3107L28.4803 22.5105L26.5102 20.9408C24.5464 19.3761 22.17 18.5243 19.7552 18.4095C19.8706 17.7822 20.1853 16.942 20.9913 16.1365C21.2294 16.2021 22.107 16.2237 22.3813 16.2237C23.9883 16.2237 25.4109 15.9105 26.6226 15.2883C26.8531 15.17 26.9439 14.8874 26.8255 14.6571C26.707 14.4267 26.424 14.3361 26.1938 14.4545C25.0154 15.0595 23.5961 15.335 21.9678 15.2781C24.908 12.8246 28.2002 10.8786 29.6632 10.0586C29.4113 10.9134 28.8889 12.1786 27.8415 13.2435C27.66 13.4281 27.6626 13.7249 27.8474 13.9063C28.032 14.0876 28.329 14.0853 28.5108 13.9005C30.0769 12.3083 30.6004 10.332 30.7528 9.55627C30.8508 9.05727 30.4237 8.61545 29.9041 8.62214C25.3046 8.70983 20.9624 10.6749 20.3858 15.2847C20.3801 15.33 20.3793 15.3752 20.382 15.4201C20.0973 15.6974 19.8611 15.9795 19.6658 16.2596V12.3599C21.6971 10.5123 22.3381 8.07389 21.8364 5.34108C21.4146 3.04445 20.2758 1.07539 19.8058 0.335517C19.8058 0.335455 19.8058 0.335455 19.8058 0.335455C19.5296 -0.0993577 18.8805 -0.124108 18.5886 0.335455C18.1185 1.07539 16.9797 3.04439 16.558 5.34108C16.0575 8.06702 16.6928 10.5078 18.7275 12.3591V16.1803C18.5436 15.9263 18.3256 15.6713 18.0677 15.4201C18.0704 15.3752 18.0696 15.33 18.0639 15.2847C17.4882 10.6819 13.1434 8.7097 8.54566 8.62208C8.02121 8.61702 7.59941 9.05995 7.69694 9.55614C8.42843 13.2808 11.2481 16.2246 16.0497 16.2246C16.3256 16.2246 17.2215 16.2016 17.4585 16.1363C18.266 16.9425 18.5813 17.78 18.6964 18.4065C16.8387 18.4839 14.9907 18.9981 13.322 19.9609C13.1329 19.8937 12.961 19.8368 12.8173 19.7938C11.4146 19.374 9.85515 19.5565 8.53853 20.2941L5.16747 22.1827C4.74805 21.7561 4.0816 21.6479 3.53802 21.9616L2.44502 22.5921C1.80291 22.9626 1.5821 23.786 1.95285 24.4276L5.94025 31.3278C6.31119 31.9697 7.13233 32.1916 7.77732 31.8196L8.87025 31.1892C9.5021 30.8246 9.72473 30.0219 9.37849 29.385L10.2013 28.6558C10.4401 28.4442 10.7771 28.3734 11.0808 28.4711L14.8722 29.6886C15.3445 29.8715 15.8676 29.9471 16.3901 29.8938L23.9648 29.1171C24.5128 29.061 25.0455 28.8642 25.5056 28.548C31.0744 24.7181 30.7403 24.9557 30.789 24.9101C31.3705 24.3665 31.4803 23.4475 31.0443 22.7728ZM28.4661 9.66302C26.8015 10.6312 24.0439 12.3472 21.5104 14.4392C22.4938 10.9493 26.144 9.9442 28.4661 9.66302ZM16.941 14.4406C14.4104 12.3508 11.6561 10.6361 9.99033 9.66695C13.1189 10.0547 16.0858 11.3935 16.941 14.4406ZM8.78499 10.0579C10.2473 10.8773 13.541 12.824 16.4824 15.2786C11.0833 15.467 9.3317 11.9308 8.78499 10.0579ZM20.9135 5.51033C21.3156 7.70052 20.8955 9.54577 19.6658 11.0116V1.98183C20.1302 2.88558 20.6614 4.13764 20.9135 5.51033ZM17.481 5.51033C17.7329 4.13852 18.2634 2.88727 18.7276 1.98377V11.0104C17.4987 9.54477 17.0789 7.69995 17.481 5.51033ZM25.9252 21.6739L27.5733 22.987L25.5111 24.07C24.8348 24.4253 24.1183 24.649 23.3751 24.7376L23.3861 24.5548C23.3876 24.5306 23.3872 24.5065 23.3849 24.4825C23.2822 23.3959 22.4863 22.5291 21.4492 22.3746C21.445 22.374 21.4407 22.3734 21.4365 22.373L17.6713 21.9163C16.4785 21.7368 16.3162 21.2145 14.4693 20.414C18.1764 18.6153 22.6678 19.0785 25.9252 21.6739ZM30.1698 24.2043L24.9737 27.7757C24.6429 28.0031 24.2611 28.1444 23.8691 28.1846L16.2944 28.9612C15.7765 29.0143 15.4557 28.8916 15.1729 28.8005L11.3679 27.5785C10.7498 27.3802 10.0641 27.5241 9.5786 27.9546L8.90096 28.5551L7.38286 25.928C7.25331 25.7037 6.96625 25.6271 6.742 25.7564C6.51762 25.8858 6.44074 26.1725 6.57029 26.3967C6.83057 26.8471 8.02034 28.9061 8.54985 29.8225C8.66188 30.0165 8.59514 30.2653 8.40104 30.3773L7.3081 31.0078C7.11313 31.1201 6.86498 31.0533 6.75276 30.8591L2.76561 23.959C2.65357 23.765 2.72026 23.5161 2.91442 23.4041L4.00735 22.7736C4.20277 22.6609 4.45079 22.7286 4.5627 22.9223L5.47135 24.4948C5.60096 24.719 5.88789 24.7958 6.11221 24.6664C6.33659 24.537 6.41347 24.2503 6.28392 24.0261L5.67546 22.9731L8.99761 21.112C10.0938 20.4978 11.388 20.3448 12.5483 20.692C15.4609 21.5634 15.811 22.5868 17.539 22.8443C17.5431 22.845 17.5474 22.8456 17.5517 22.846L21.3166 23.3026C21.9125 23.3943 22.3729 23.8985 22.4472 24.5366L22.4309 24.8047L17.6449 25.117C17.3863 25.134 17.1904 25.357 17.2073 25.6154C17.2236 25.8633 17.4299 26.0536 17.675 26.0536C17.6853 26.0536 17.6956 26.0533 17.7061 26.0526C22.7714 25.5953 23.8928 25.9791 25.9477 24.8997C29.5297 23.017 29.328 23.1286 29.3755 23.0949C29.6652 22.8898 30.054 22.9682 30.2561 23.2811C30.444 23.5721 30.4057 23.9633 30.1698 24.2043Z" fill="currentColor"/>
</g>
<defs>
<clipPath id="clip0_24:691">
<rect width="32.0273" height="32" fill="white" transform="translate(0.528137)"/>
</clipPath>
</defs>
</symbol>



<!-- Group Arrow -->

<!-- Arrow-link -->
<symbol id="arrow" viewBox="0 0 25 24" fill="none" xmlns="http://www.w3.org/2000/svg">
<path d="M5.71161 12H19.7236" stroke="currentColor" stroke-width="2" stroke-linecap="round" stroke-linejoin="round"/>
<path d="M13.7184 18L19.7235 12" stroke="currentColor" stroke-width="2" stroke-linecap="round" stroke-linejoin="round"/>
<path d="M13.7184 6L19.7235 12" stroke="currentColor" stroke-width="2" stroke-linecap="round" stroke-linejoin="round"/>
</symbol>

<!-- Arrow-list -->
<symbol id="arrow-list" viewBox="0 0 12 20" fill="none" xmlns="http://www.w3.org/2000/svg">
<path d="M1.98296 2L9.98978 10L1.98296 18" stroke="#13AB4E" stroke-width="2.5" stroke-linecap="round" stroke-linejoin="round"/>
</symbol>

<!-- Popup-icon -->

<!-- Name -->
<symbol id='user-popup-icon' xmlns="http://www.w3.org/2000/svg" viewBox="0 0 15 15">
  <path id="_ionicons_svg_ios-person" d="M79,78.621c-.281-1.242-1.887-1.848-2.442-2.043a18.2,18.2,0,0,0-2.035-.391,2.068,2.068,0,0,1-.941-.434,8.227,8.227,0,0,1-.062-1.926,5.793,5.793,0,0,0,.445-.848,10.933,10.933,0,0,0,.328-1.48s.32,0,.434-.562a5.535,5.535,0,0,0,.289-1.309c-.023-.449-.27-.437-.27-.437a6.848,6.848,0,0,0,.266-2,3.518,3.518,0,0,0-7,0,7.143,7.143,0,0,0,.262,2s-.246-.012-.27.438a5.534,5.534,0,0,0,.289,1.309c.109.563.434.563.434.563a10.934,10.934,0,0,0,.328,1.48,5.8,5.8,0,0,0,.445.848,8.227,8.227,0,0,1-.063,1.926,2.068,2.068,0,0,1-.941.434,18.2,18.2,0,0,0-2.035.391c-.555.2-2.16.8-2.442,2.043a.312.312,0,0,0,.309.379H78.7A.312.312,0,0,0,79,78.621Z" transform="translate(-64.009 -64)" fill="#13ab4e"/>
</symbol>

<!-- Phone -->
<symbol id ='phone-popup-icon' xmlns="http://www.w3.org/2000/svg"  viewBox="0 0 15 15">
  <path id="_ionicons_svg_ios-call" d="M78.424,75.781a12.6,12.6,0,0,0-2.632-1.761c-.789-.379-1.078-.371-1.636.031-.465.336-.765.648-1.3.531a10.991,10.991,0,0,1-4.545-4.546c-.113-.539.2-.836.531-1.3.4-.558.414-.847.031-1.636a12.351,12.351,0,0,0-1.761-2.632c-.574-.574-.7-.449-1.019-.336a5.8,5.8,0,0,0-.933.5,2.815,2.815,0,0,0-1.121,1.183c-.223.48-.48,1.375.832,3.71a20.7,20.7,0,0,0,3.639,4.854l0,0,0,0a20.78,20.78,0,0,0,4.854,3.64c2.335,1.312,3.229,1.054,3.71.832a2.767,2.767,0,0,0,1.183-1.121,5.8,5.8,0,0,0,.5-.933C78.873,76.484,79,76.355,78.424,75.781Z" transform="translate(-63.857 -64.035)" fill="#13ab4e"/>
</symbol>

<!-- Mail -->
<symbol id="mail-icon" xmlns="http://www.w3.org/2000/svg"  viewBox="0 0 15.195 10.52">
  <g id="_ionicons_svg_ios-mail" transform="translate(-48 -112)">
    <path id="Path_1" data-name="Path 1" d="M63.071,146.707l-3.93,4a.071.071,0,0,0,0,.1l2.75,2.929a.474.474,0,0,1,0,.672.476.476,0,0,1-.672,0L58.479,151.5a.075.075,0,0,0-.106,0l-.668.679a2.941,2.941,0,0,1-2.1.884,3,3,0,0,1-2.14-.91l-.643-.654a.075.075,0,0,0-.106,0l-2.739,2.918a.476.476,0,0,1-.672,0,.474.474,0,0,1,0-.672l2.75-2.929a.078.078,0,0,0,0-.1l-3.934-4a.072.072,0,0,0-.124.051v8.01a1.172,1.172,0,0,0,1.169,1.169H62.026a1.172,1.172,0,0,0,1.169-1.169v-8.01A.073.073,0,0,0,63.071,146.707Z" transform="translate(0 -33.418)" fill="#13ab4e"/>
    <path id="Path_2" data-name="Path 2" d="M67.255,118.688a1.986,1.986,0,0,0,1.428-.6l5.731-5.833a1.148,1.148,0,0,0-.723-.256H60.823a1.14,1.14,0,0,0-.723.256l5.731,5.833A1.986,1.986,0,0,0,67.255,118.688Z" transform="translate(-11.658)" fill="#13ab4e"/>
  </g>
</symbol>



</svg>
